<svg height="1630" width="720" xmlns="http://www.w3.org/2000/svg">
<rect height="1630" fill="#555" width="720"></rect>
<text fill="#7f7" font-family="Courier New" font-size="12" xml:space="preserve">
<tspan x="10" y="26">└─┬ gulp-htmlhint@0.3.1 </tspan>
<tspan x="10" y="42">  ├─┬ gulp-util@3.0.8 </tspan>
<tspan x="10" y="58">  │ ├── array-differ@1.0.0 </tspan>
<tspan x="10" y="74">  │ ├── array-uniq@1.0.3 </tspan>
<tspan x="10" y="90">  │ ├── beeper@1.1.1 </tspan>
<tspan x="10" y="106">  │ ├─┬ chalk@1.1.3 </tspan>
<tspan x="10" y="122">  │ │ ├── ansi-styles@2.2.1 </tspan>
<tspan x="10" y="138">  │ │ ├── escape-string-regexp@1.0.5 </tspan>
<tspan x="10" y="154">  │ │ ├─┬ has-ansi@2.0.0 </tspan>
<tspan x="10" y="170">  │ │ │ └── ansi-regex@2.1.1 </tspan>
<tspan x="10" y="186">  │ │ ├── strip-ansi@3.0.1 </tspan>
<tspan x="10" y="202">  │ │ └── supports-color@2.0.0 </tspan>
<tspan x="10" y="218">  │ ├── dateformat@2.0.0 </tspan>
<tspan x="10" y="234">  │ ├─┬ fancy-log@1.3.0 </tspan>
<tspan x="10" y="250">  │ │ └── time-stamp@1.0.1 </tspan>
<tspan x="10" y="266">  │ ├─┬ gulplog@1.0.0 </tspan>
<tspan x="10" y="282">  │ │ └── glogg@1.0.0 </tspan>
<tspan x="10" y="298">  │ ├─┬ has-gulplog@0.1.0 </tspan>
<tspan x="10" y="314">  │ │ └── sparkles@1.0.0 </tspan>
<tspan x="10" y="330">  │ ├── lodash._reescape@3.0.0 </tspan>
<tspan x="10" y="346">  │ ├── lodash._reevaluate@3.0.0 </tspan>
<tspan x="10" y="362">  │ ├── lodash._reinterpolate@3.0.0 </tspan>
<tspan x="10" y="378">  │ ├─┬ lodash.template@3.6.2 </tspan>
<tspan x="10" y="394">  │ │ ├── lodash._basecopy@3.0.1 </tspan>
<tspan x="10" y="410">  │ │ ├── lodash._basetostring@3.0.1 </tspan>
<tspan x="10" y="426">  │ │ ├── lodash._basevalues@3.0.0 </tspan>
<tspan x="10" y="442">  │ │ ├── lodash._isiterateecall@3.0.9 </tspan>
<tspan x="10" y="458">  │ │ ├─┬ lodash.escape@3.2.0 </tspan>
<tspan x="10" y="474">  │ │ │ └── lodash._root@3.0.1 </tspan>
<tspan x="10" y="490">  │ │ ├─┬ lodash.keys@3.1.2 </tspan>
<tspan x="10" y="506">  │ │ │ ├── lodash._getnative@3.9.1 </tspan>
<tspan x="10" y="522">  │ │ │ ├── lodash.isarguments@3.1.0 </tspan>
<tspan x="10" y="538">  │ │ │ └── lodash.isarray@3.0.4 </tspan>
<tspan x="10" y="554">  │ │ ├── lodash.restparam@3.6.1 </tspan>
<tspan x="10" y="570">  │ │ └── lodash.templatesettings@3.1.1 </tspan>
<tspan x="10" y="586">  │ ├── minimist@1.2.0 </tspan>
<tspan x="10" y="602">  │ ├─┬ multipipe@0.1.2 </tspan>
<tspan x="10" y="618">  │ │ └─┬ duplexer2@0.0.2 </tspan>
<tspan x="10" y="634">  │ │   └─┬ readable-stream@1.1.14 </tspan>
<tspan x="10" y="650">  │ │     └── isarray@0.0.1 </tspan>
<tspan x="10" y="666">  │ ├── object-assign@3.0.0 </tspan>
<tspan x="10" y="682">  │ ├── replace-ext@0.0.1 </tspan>
<tspan x="10" y="698">  │ └─┬ vinyl@0.5.3 </tspan>
<tspan x="10" y="714">  │   ├── clone@1.0.2 </tspan>
<tspan x="10" y="730">  │   └── clone-stats@0.0.1 </tspan>
<tspan x="10" y="746">  ├─┬ htmlhint@0.9.13 </tspan>
<tspan x="10" y="762">  │ ├── async@1.4.2 </tspan>
<tspan x="10" y="778">  │ ├── colors@1.0.3 </tspan>
<tspan x="10" y="794">  │ ├── commander@2.6.0 </tspan>
<tspan x="10" y="810">  │ ├─┬ csslint@0.10.0 </tspan>
<tspan x="10" y="826">  │ │ └── parserlib@0.2.5 </tspan>
<tspan x="10" y="842">  │ ├─┬ glob@5.0.15 </tspan>
<tspan x="10" y="858">  │ │ ├─┬ inflight@1.0.6 </tspan>
<tspan x="10" y="874">  │ │ │ └── wrappy@1.0.2 </tspan>
<tspan x="10" y="890">  │ │ ├── inherits@2.0.3 </tspan>
<tspan x="10" y="906">  │ │ ├─┬ minimatch@3.0.3 </tspan>
<tspan x="10" y="922">  │ │ │ └─┬ brace-expansion@1.1.6 </tspan>
<tspan x="10" y="938">  │ │ │   ├── balanced-match@0.4.2 </tspan>
<tspan x="10" y="954">  │ │ │   └── concat-map@0.0.1 </tspan>
<tspan x="10" y="970">  │ │ ├── once@1.4.0 </tspan>
<tspan x="10" y="986">  │ │ └── path-is-absolute@1.0.1 </tspan>
<tspan x="10" y="1002">  │ ├─┬ jshint@2.8.0 </tspan>
<tspan x="10" y="1018">  │ │ ├─┬ cli@0.6.6 </tspan>
<tspan x="10" y="1034">  │ │ │ └─┬ glob@3.2.11 </tspan>
<tspan x="10" y="1050">  │ │ │   └─┬ minimatch@0.3.0 </tspan>
<tspan x="10" y="1066">  │ │ │     ├── lru-cache@2.7.3 </tspan>
<tspan x="10" y="1082">  │ │ │     └── sigmund@1.0.1 </tspan>
<tspan x="10" y="1098">  │ │ ├─┬ console-browserify@1.1.0 </tspan>
<tspan x="10" y="1114">  │ │ │ └── date-now@0.1.4 </tspan>
<tspan x="10" y="1130">  │ │ ├── exit@0.1.2 </tspan>
<tspan x="10" y="1146">  │ │ ├─┬ htmlparser2@3.8.3 </tspan>
<tspan x="10" y="1162">  │ │ │ ├── domelementtype@1.3.0 </tspan>
<tspan x="10" y="1178">  │ │ │ ├── domhandler@2.3.0 </tspan>
<tspan x="10" y="1194">  │ │ │ ├─┬ domutils@1.5.1 </tspan>
<tspan x="10" y="1210">  │ │ │ │ └─┬ dom-serializer@0.1.0 </tspan>
<tspan x="10" y="1226">  │ │ │ │   ├── domelementtype@1.1.3 </tspan>
<tspan x="10" y="1242">  │ │ │ │   └── entities@1.1.1 </tspan>
<tspan x="10" y="1258">  │ │ │ └── entities@1.0.0 </tspan>
<tspan x="10" y="1274">  │ │ ├── lodash@3.7.0 </tspan>
<tspan x="10" y="1290">  │ │ ├── minimatch@2.0.10 </tspan>
<tspan x="10" y="1306">  │ │ ├── shelljs@0.3.0 </tspan>
<tspan x="10" y="1322">  │ │ └── strip-json-comments@1.0.4 </tspan>
<tspan x="10" y="1338">  │ ├─┬ parse-glob@3.0.4 </tspan>
<tspan x="10" y="1354">  │ │ ├─┬ glob-base@0.3.0 </tspan>
<tspan x="10" y="1370">  │ │ │ └── glob-parent@2.0.0 </tspan>
<tspan x="10" y="1386">  │ │ ├── is-dotfile@1.0.2 </tspan>
<tspan x="10" y="1402">  │ │ ├── is-extglob@1.0.0 </tspan>
<tspan x="10" y="1418">  │ │ └── is-glob@2.0.1 </tspan>
<tspan x="10" y="1434">  │ ├── strip-json-comments@1.0.4 </tspan>
<tspan x="10" y="1450">  │ └── xml@1.0.0 </tspan>
<tspan x="10" y="1466">  ├── strip-json-comments@2.0.1 </tspan>
<tspan x="10" y="1482">  └─┬ through2@2.0.3 </tspan>
<tspan x="10" y="1498">    ├─┬ readable-stream@2.2.6 </tspan>
<tspan x="10" y="1514">    │ ├── buffer-shims@1.0.0 </tspan>
<tspan x="10" y="1530">    │ ├── core-util-is@1.0.2 </tspan>
<tspan x="10" y="1546">    │ ├── isarray@1.0.0 </tspan>
<tspan x="10" y="1562">    │ ├── process-nextick-args@1.0.7 </tspan>
<tspan x="10" y="1578">    │ ├── string_decoder@0.10.31 </tspan>
<tspan x="10" y="1594">    │ └── util-deprecate@1.0.2 </tspan>
<tspan x="10" y="1610">    └── xtend@4.0.1</tspan>
</text>
</svg>
